<?xml version="1.0" standalone="no"?>
<!DOCTYPE svg PUBLIC "-//W3C//DTD SVG 20010904//EN"
 "http://www.w3.org/TR/2001/REC-SVG-20010904/DTD/svg10.dtd">
<svg version="1.0" xmlns="http://www.w3.org/2000/svg"
 width="586.000000pt" height="638.000000pt" viewBox="0 0 586.000000 638.000000"
 preserveAspectRatio="xMidYMid meet">

<g transform="translate(0.000000,638.000000) scale(0.100000,-0.100000)"
fill="#000000" stroke="none">
<path d="M0 3190 l0 -3190 2930 0 2930 0 0 3190 0 3190 -2930 0 -2930 0 0
-3190z m4585 2406 l440 -1 6 -250 c12 -479 19 -2738 9 -2901 -27 -429 -98
-693 -260 -961 -175 -290 -533 -578 -908 -732 -100 -41 -302 -97 -457 -127
-125 -23 -648 -23 -836 1 -491 63 -929 267 -1254 582 -234 228 -351 444 -429
796 -71 319 -78 529 -73 2195 3 1170 6 1385 18 1393 8 5 323 9 706 9 710 0
702 0 724 -33 1 -1 5 -607 9 -1347 8 -1436 6 -1393 56 -1570 37 -129 153 -274
258 -324 62 -29 172 -66 200 -67 21 0 21 -1 1 -8 -14 -6 7 -11 65 -15 94 -8
235 6 296 29 l39 15 -40 -6 c-22 -3 -49 -8 -60 -10 -17 -4 -17 -3 -4 5 9 6 31
13 50 16 19 3 71 24 116 46 100 48 160 111 210 217 81 173 84 219 91 1680 6
1039 9 1254 21 1261 9 6 10 11 2 15 -13 9 -15 46 -2 46 5 0 7 9 4 20 -3 11 -4
21 -2 22 9 5 487 13 524 9 22 -2 238 -5 480 -5z"/>
<path d="M930 4188 c0 -1537 9 -1852 56 -2108 56 -300 176 -555 342 -725 57
-59 140 -135 146 -135 3 0 19 -14 35 -31 17 -17 35 -28 41 -24 5 3 13 -1 16
-9 3 -9 12 -16 18 -16 7 0 23 -11 36 -25 13 -14 29 -25 36 -25 7 0 14 -3 16
-8 6 -13 132 -90 178 -108 25 -10 47 -21 50 -25 3 -4 19 -11 35 -15 17 -3 38
-13 47 -21 10 -9 25 -12 37 -8 12 3 21 2 21 -3 0 -5 19 -17 43 -27 23 -9 50
-21 59 -26 10 -5 25 -9 33 -9 8 0 23 -4 33 -9 9 -5 37 -15 62 -21 25 -7 56
-16 70 -21 105 -35 352 -66 555 -68 176 -2 274 6 580 48 102 14 257 57 351 98
21 9 45 18 53 19 8 2 17 7 20 11 3 5 25 15 49 21 23 7 42 17 42 22 0 6 6 10
13 10 6 0 41 16 77 35 36 18 81 42 100 52 19 10 42 24 50 32 8 8 38 29 66 47
52 33 204 179 204 196 0 5 5 6 10 3 6 -3 10 1 10 9 0 9 4 16 9 16 5 0 13 10
17 22 3 12 15 31 26 42 55 58 207 338 223 410 1 6 4 18 8 26 3 8 11 36 17 63
7 26 17 50 21 53 5 3 9 11 9 17 0 7 -4 6 -11 -3 -9 -12 -9 -11 -4 5 4 11 8 27
9 35 1 9 5 20 9 26 10 16 25 113 43 264 13 114 16 352 19 1555 2 781 1 1465
-3 1520 l-7 100 -598 3 c-417 1 -596 -1 -592 -8 4 -6 1 -18 -6 -26 -10 -12 -9
-13 7 -8 14 4 15 3 5 -4 -7 -5 -22 -7 -32 -5 -19 5 -19 -23 -19 -1198 0 -680
-5 -1258 -10 -1329 -21 -276 -81 -440 -202 -560 -62 -61 -133 -106 -213 -134
-127 -44 -173 -51 -335 -51 -141 1 -162 3 -235 28 -115 38 -199 91 -285 177
-139 141 -208 345 -224 667 -5 90 -21 2353 -17 2419 0 16 -7 23 -27 27 -15 3
-289 6 -609 7 l-583 0 0 -1292z m2827 1266 c-3 -3 -12 -4 -19 -1 -8 3 -5 6 6
6 11 1 17 -2 13 -5z"/>
<path d="M3680 5459 c0 -5 5 -7 10 -4 6 3 10 8 10 11 0 2 -4 4 -10 4 -5 0 -10
-5 -10 -11z"/>
<path d="M5007 5423 c-7 -6 3 -1514 9 -1522 2 -2 4 341 4 762 0 422 -1 767 -3
767 -2 0 -7 -3 -10 -7z"/>
<path d="M5013 3845 c0 -27 2 -38 4 -22 2 15 2 37 0 50 -2 12 -4 0 -4 -28z"/>
<path d="M5014 3565 c0 -126 2 -177 3 -112 2 65 2 168 0 230 -1 62 -3 9 -3
-118z"/>
<path d="M5012 3150 c0 -19 2 -27 5 -17 2 9 2 25 0 35 -3 9 -5 1 -5 -18z"/>
<path d="M5014 2630 c0 -102 2 -143 3 -92 2 50 2 134 0 185 -1 50 -3 9 -3 -93z"/>
<path d="M3565 2565 c-5 -16 -17 -38 -27 -49 -10 -11 -18 -27 -18 -36 0 -25
-148 -172 -204 -203 -59 -33 -116 -53 -221 -78 -64 -15 -70 -18 -30 -14 172
18 315 89 412 207 48 59 107 171 100 191 -2 6 -8 -1 -12 -18z"/>
<path d="M4996 2350 c-5 -52 -10 -104 -11 -115 -1 -11 -5 -38 -9 -60 -4 -22
-9 -53 -11 -70 -18 -120 -111 -408 -153 -473 -8 -12 -12 -25 -8 -29 3 -3 6 -1
6 5 0 6 8 18 18 28 9 10 17 20 18 23 1 8 12 36 34 86 23 56 40 108 40 128 0 9
4 17 9 17 5 0 14 30 21 68 6 37 18 94 25 127 18 78 38 269 33 320 -2 27 -6 10
-12 -55z"/>
<path d="M2968 2173 c7 -3 16 -2 19 1 4 3 -2 6 -13 5 -11 0 -14 -3 -6 -6z"/>
<path d="M931 2004 c0 -11 3 -14 6 -6 3 7 2 16 -1 19 -3 4 -6 -2 -5 -13z"/>
<path d="M965 1858 c19 -65 59 -177 63 -173 5 4 -59 195 -65 195 -2 0 -1 -10
2 -22z"/>
<path d="M1041 1650 c14 -31 19 -36 19 -24 0 6 -7 19 -16 30 -14 18 -14 18 -3
-6z"/>
<path d="M1060 1605 c0 -7 56 -99 93 -154 49 -71 97 -128 97 -115 0 7 -7 17
-15 24 -25 21 -123 165 -142 209 -10 23 -21 41 -25 41 -5 0 -8 -2 -8 -5z"/>
<path d="M4787 1583 c-4 -3 -7 -15 -7 -26 0 -25 9 -17 15 12 4 22 2 25 -8 14z"/>
<path d="M4746 1505 c-9 -26 -7 -32 5 -12 6 10 9 21 6 23 -2 3 -7 -2 -11 -11z"/>
<path d="M4716 1453 c-6 -14 -5 -15 5 -6 7 7 10 15 7 18 -3 3 -9 -2 -12 -12z"/>
<path d="M4300 1030 c-9 -6 -10 -10 -3 -10 6 0 15 5 18 10 8 12 4 12 -15 0z"/>
<path d="M4260 1005 c-8 -9 -8 -15 -2 -15 12 0 26 19 19 26 -2 2 -10 -2 -17
-11z"/>
<path d="M4185 950 c-3 -6 1 -7 9 -4 18 7 21 14 7 14 -6 0 -13 -4 -16 -10z"/>
<path d="M4012 844 c-18 -8 -30 -19 -27 -24 3 -6 8 -10 11 -10 3 0 2 5 -1 10
-3 6 0 10 7 10 8 0 23 7 34 15 23 18 19 18 -24 -1z"/>
<path d="M3870 830 c-25 -11 -38 -19 -30 -19 8 0 33 8 55 18 51 25 34 25 -25
1z"/>
<path d="M3937 809 c-11 -6 -24 -12 -30 -13 -7 -2 -24 -8 -39 -14 -15 -6 -77
-28 -138 -48 -61 -21 -109 -39 -107 -40 4 -4 87 15 112 26 11 5 45 16 75 25
81 25 160 58 160 67 0 11 -11 10 -33 -3z"/>
<path d="M3775 800 l-20 -9 20 0 c11 0 27 4 35 9 13 9 13 10 0 9 -8 0 -24 -4
-35 -9z"/>
<path d="M3715 780 c-19 -8 -19 -9 2 -9 12 -1 25 4 28 9 7 12 -2 12 -30 0z"/>
<path d="M3620 750 c-18 -12 -2 -12 25 0 13 6 15 9 5 9 -8 0 -22 -4 -30 -9z"/>
<path d="M3570 740 c-8 -5 -10 -10 -5 -10 6 0 17 5 25 10 8 5 11 10 5 10 -5 0
-17 -5 -25 -10z"/>
<path d="M3408 703 c7 -3 16 -2 19 1 4 3 -2 6 -13 5 -11 0 -14 -3 -6 -6z"/>
<path d="M3555 680 c-8 -13 15 -13 35 0 12 8 11 10 -7 10 -12 0 -25 -4 -28
-10z"/>
<path d="M3412 653 c-40 -9 -71 -17 -69 -20 6 -5 149 18 167 28 23 13 -12 10
-98 -8z"/>
<path d="M3248 623 c7 -3 16 -2 19 1 4 3 -2 6 -13 5 -11 0 -14 -3 -6 -6z"/>
</g>
</svg>
